 http://www.torrentday.com - Your Key To The Scene.

 
http://www.torrentday.com :  Clean RAR Scene Releases!


Enjoy =)

...................................NFO:....................................

.      *********** ****    ****      ***      ******** *********** ****    *** **********
           *+*     +*+*+* *+*+*+   *+* *+*   *+*    *+*    *+*     *+*+*   *+* *+*        
           +*+     +*+ +*+*+ +*+  +*+   +*+  +*+           +*+     *+*+*+  +*+ +*+        
           +$+     +$+  +*+  +$+ +$++*++$++* *$*           +$+     +$+ +*+ +$+ +$++*++$  
           +$+     +$+       +$+ +$+     +$+ +$+   +$+$    +$+     +$+  +$+$+$ +$+        
           $+$     $+$       $+$ $+$     $+$ $+$    $+$    $+$     $+$   $+$+$ $+$        
       $$$$$$$$$$$ $$$       $$$ $$$     $$$  $$$$$$$$ $$$$$$$$$$$ $$$    $$$$ $$$$$$$$$$     
                                                



                         Another Fine Release Brought to you from - IMAGiNE                   
                                               
********************************************************************************************************************                                
                          Alice In Wonderland 2010 TS XVID  - IMAGiNE
********************************************************************************************************************

Ripper ...........: IMAGiNE                                        IMDB Rating.......:7.1/10                             
Video Codec.......: XVID                                         Release Date......:13/03/10
Audio Codec.......:MP3                                           Theatre Date......:05/03/10
Audio Bitrate.....:128                                              Runtime.......:1h 40mn
Subtitles.........:NIL                                                 Language..........:ENGLISH
Resolution...... 704 x 368                                      IMDb URL..........:http://www.imdb.com/title/tt1014759/


[color=yellow]DETAILS:[/color]

Video
ID                               : 0
Format                           : MPEG-4 Visual
Format profile                   : Advanced Simple@L5
Format settings, BVOP            : Yes
Format settings, QPel            : No
Format settings, GMC             : No warppoints
Format settings, Matrix          : Default (MPEG)
Muxing mode                      : Packed bitstream
Codec ID                         : XVID
Codec ID/Hint                    : XviD
Duration                         : 1h 40mn
Bit rate                         : 1 863 Kbps
Width                            : 704 pixels
Height                           : 368 pixels
Display aspect ratio             : 1.913
Frame rate                       : 23.976 fps
Resolution                       : 24 bits
Colorimetry                      : 4:2:0
Scan type                        : Progressive
Bits/(Pixel*Frame)               : 0.300
Stream size                      : 1.31 GiB (93%)
Writing library                  : XviD 1.2.1 (UTC 2008-12-04)

Audio
ID                               : 1
Format                           : MPEG Audio
Format version                   : Version 1
Format profile                   : Layer 3
Codec ID                         : 55
Codec ID/Hint                    : MP3
Duration                         : 1h 40mn
Bit rate mode                    : Constant
Bit rate                         : 128 Kbps
Channel(s)                       : 2 channels
Sampling rate                    : 48.0 KHz
Resolution                       : 16 bits
Stream size                      : 91.8 MiB (6%)
Alignment                        : Split accross interleaves
Interleave, duration             : 42 ms (1.00 video frame)
Interleave, preload duration     : 500 ms


[color=yellow]NOTES:[/color]

IMAGiNE bringing you another release.....Alice in wonderland.
Well what can we say ....firstly we're a bit late releasing this,ran into a few problems with both video and audio,but we
carried on and in the end got the result we wanted.
Video had to be rotated and levelled up,need the colours,contrast etc all tweaking so we did what needed to be done.
Audio was pain in the ass.....spent hrs trying to get it right and in sync.
Overall we're really pleased with the outcome .........So enjoy this really nice TS.


[color=yellow]SCREENS:[/color]

[IMG]http://imagine.takagari.com/ALICE%20IN%20WONDERLAND%202010%20TS/snapshot20100313001337.jpg[/IMG]
[IMG]http://imagine.takagari.com/ALICE%20IN%20WONDERLAND%202010%20TS/snapshot20100313001546.jpg[/IMG]
[IMG]http://imagine.takagari.com/ALICE%20IN%20WONDERLAND%202010%20TS/snapshot20100313001933.jpg[/IMG]
[IMG]http://imagine.takagari.com/ALICE%20IN%20WONDERLAND%202010%20TS/snapshot20100313002003.jpg[/IMG]
[IMG]http://imagine.takagari.com/ALICE%20IN%20WONDERLAND%202010%20TS/snapshot20100313002536.jpg[/IMG]


[color=yellow]GREETS:[/color]

FLAWL3SS,ViSiON,FUSiON,Rx,SecretMyth,BirdFlu,ELEKTRI4KA
And to all the other p2p grps past and present 

Special thanks to Python-Lair for the server :)
And special thanks to supreme-speeds.com for the ripbox :)

[COLOR=RED]Looking for these,syncers,cammers,silver supplier.....Have anything to offer????......
Contact us imaginegroup@hushmail.com[/COLOR]